{"title":"Youngistaan (2014) Web HD Rip - x264 Mp3 {VikkyMaxx}[SilverRG]","uid":10291656,"size":743620938,"categoryP":"video","categoryS":"movies","magnet":"?xt=urn:btih:fae48189ab01fb8134a408a6c105568dd95f48c9&amp;dn=Youngistaan+%282014%29+Web+HD+Rip+-+x264+Mp3+%7BVikkyMaxx%7D%5BSilverRG%5D&amp;tr=udp%3A%2F%2Ftracker.openbittorrent.com%3A80&amp;tr=udp%3A%2F%2Fopen.demonii.com%3A1337&amp;tr=udp%3A%2F%2Ftracker.coppersurfer.tk%3A6969&amp;tr=udp%3A%2F%2Fexodus.desync.com%3A6969","seeders":0,"leechers":1,"uploader":"shailendramaxx","files":16,"time":1401868182,"description":"VikkyMaxx SilverRG Presents:-\n\n\n\nGeneral:-\n \nComplete name :Youngistaan (2014) Web HD Rip - x264 Mp3{VikkyMaxx}[SilverRG]\nFormat : Matroska \nFormat version : Version 2 \nFile size : 700 MiB \nDuration : 2h 4mn \nOverall bit rate : 785 Kbps \nEncoded date : UTC 2014-06-03 10:25:07 \nWriting application : mkvmerge v6.9.1 ('Blue Panther') 32bit built on Apr 18 2014 18:15:44 \nWriting library : libebml v1.3.0 + libmatroska v1.4.1 \n\nVideo:-\n \nID : 1 \nFormat : AVC \nFormat/Info : Advanced Video Codec \nFormat profile : &lt;a class=&quot;__cf_email__&quot; href=&quot;/cdn-cgi/l/email-protection&quot; data-cfemail=&quot;5119383639111d637f60&quot;&gt;[email&amp;#160;protected]&lt;/a&gt;&lt;script cf-hash='f9e31' type=&quot;text/javascript&quot;&gt;\n/* &lt;![CDATA[ */!function(){try{var t=&quot;currentScript&quot;in document?document.currentScript:function(){for(var t=document.getElementsByTagName(&quot;script&quot;),e=t.length;e--;)if(t[e].getAttribute(&quot;cf-hash&quot;))return t[e]}();if(t&amp;&amp;t.previousSibling){var e,r,n,i,c=t.previousSibling,a=c.getAttribute(&quot;data-cfemail&quot;);if(a){for(e=&quot;&quot;,r=parseInt(a.substr(0,2),16),n=2;a.length-n;n+=2)i=parseInt(a.substr(n,2),16)^r,e+=String.fromCharCode(i);e=document.createTextNode(e),c.parentNode.replaceChild(e,c)}}}catch(u){}}();/* ]]&gt; */&lt;/script&gt; \nFormat settings, CABAC : Yes \nFormat settings, ReFrames : 4 frames \nCodec ID : V_MPEG4/ISO/AVC \nDuration : 2h 4mn \nBit rate : 703 Kbps \nWidth : 640 pixels \nHeight : 272 pixels \nDisplay aspect ratio : 2.35:1 \nFrame rate mode : Constant \nFrame rate : 25.000 fps \nColor space : YUV \nChroma subsampling : 4:2:0 \nBit depth : 8 bits \nScan type : Progressive \nBits/(Pixel*Frame) : 0.162 \nStream size : 615 MiB (88%) \nWriting library : x264 core 142 r2431 ac76440 \nEncoding settings : cabac=1 / ref=3 / deblock=1:0:0 \nLanguage : Hindi \nDefault : Yes \nForced : No \n\nAudio \nID : 2 \nFormat : MPEG Audio \nFormat version : Version 1 \nFormat profile : Layer 3 \nMode : Joint stereo \nMode extension : MS Stereo \nCodec ID : A_MPEG/L3 \nCodec ID/Hint : MP3 \nDuration : 2h 4mn \nBit rate mode : Constant \nBit rate : 80.0 Kbps \nChannel(s) : 2 channels \nSampling rate : 32.0 KHz \nCompression mode : Lossy \nStream size : 71.4 MiB (10%) \nWriting library : LAME3.99r \nEncoding settings : -m j -V 4 -q 2 -lowpass 13.5 -b 80 \nLanguage : Hindi \nDefault : Yes \nForced : No \n\n\nSCREENS:-\n &lt;a href=&quot;\nhttp://i.imgur.com/PhEDB08.png&quot; rel=&quot;nofollow&quot; target=&quot;_NEW&quot;&gt;\nhttp://i.imgur.com/PhEDB08.png&lt;/a&gt;\n &lt;a href=&quot;\nhttp://i.imgur.com/hZIIwOX.png&quot; rel=&quot;nofollow&quot; target=&quot;_NEW&quot;&gt;\nhttp://i.imgur.com/hZIIwOX.png&lt;/a&gt;\n &lt;a href=&quot;\nhttp://i.imgur.com/DdJqwqa.png&quot; rel=&quot;nofollow&quot; target=&quot;_NEW&quot;&gt;\nhttp://i.imgur.com/DdJqwqa.png&lt;/a&gt;\n &lt;a href=&quot;\nhttp://i.imgur.com/45f041L.png&quot; rel=&quot;nofollow&quot; target=&quot;_NEW&quot;&gt;\nhttp://i.imgur.com/45f041L.png&lt;/a&gt;\n &lt;a href=&quot;\nhttp://i.imgur.com/4uozC7C.png&quot; rel=&quot;nofollow&quot; target=&quot;_NEW&quot;&gt;\nhttp://i.imgur.com/4uozC7C.png&lt;/a&gt;\n &lt;a href=&quot;\nhttp://i.imgur.com/qY1Gdvm.png&quot; rel=&quot;nofollow&quot; target=&quot;_NEW&quot;&gt;\nhttp://i.imgur.com/qY1Gdvm.png&lt;/a&gt;\n &lt;a href=&quot;\nhttp://i.imgur.com/5OyuPYY.png&quot; rel=&quot;nofollow&quot; target=&quot;_NEW&quot;&gt;\nhttp://i.imgur.com/5OyuPYY.png&lt;/a&gt;\n &lt;a href=&quot;\nhttp://i.imgur.com/oDTWMjF.png&quot; rel=&quot;nofollow&quot; target=&quot;_NEW&quot;&gt;\nhttp://i.imgur.com/oDTWMjF.png&lt;/a&gt;\n &lt;a href=&quot;\nhttp://i.imgur.com/5lzgzej.png&quot; rel=&quot;nofollow&quot; target=&quot;_NEW&quot;&gt;\nhttp://i.imgur.com/5lzgzej.png&lt;/a&gt;\n\n                                   \n\nSAMPLE AND SCREENSHOTS INCLUDED\n\n    \n             \n             ********** PLEASE SEED AS LONG AS YOU CAN AFTER DOWNLOAD **********\n       \n                    ***** THANK YOU REGARDS - VIKKYMAXX (SilverRG) *****\n                                        \n                    ","torrent":{"xt":"urn:btih:fae48189ab01fb8134a408a6c105568dd95f48c9","amp;dn":"Youngistaan+%282014%29+Web+HD+Rip+-+x264+Mp3+%7BVikkyMaxx%7D%5BSilverRG%5D","amp;tr":["udp%3A%2F%2Ftracker.openbittorrent.com%3A80","udp%3A%2F%2Fopen.demonii.com%3A1337","udp%3A%2F%2Ftracker.coppersurfer.tk%3A6969","udp%3A%2F%2Fexodus.desync.com%3A6969"],"infoHash":"fae48189ab01fb8134a408a6c105568dd95f48c9","infoHashBuffer":{"type":"Buffer","data":[250,228,129,137,171,1,251,129,52,164,8,166,193,5,86,141,217,95,72,201]},"announce":[],"urlList":[]}}